<svg id="svg" version="1.1" xmlns="http://www.w3.org/2000/svg" xmlns:xlink="http://www.w3.org/1999/xlink" width="250" height="76.4963503649635" viewBox="0, 0, 400,76.4963503649635"><g id="svgg"><path id="path0" d="M190.657 2.676 C 173.994 6.339,164.983 18.954,165.039 38.540 C 165.109 62.620,177.562 74.763,202.159 74.736 C 228.985 74.706,243.269 55.479,237.355 27.363 C 233.307 8.118,213.510 -2.348,190.657 2.676 M26.286 7.726 C 22.331 18.024,1.752 73.022,1.752 73.291 C 1.752 73.448,6.868 73.577,13.122 73.577 L 24.492 73.577 26.306 67.737 L 28.120 61.898 40.020 61.898 L 51.921 61.898 53.723 67.737 L 55.525 73.577 67.178 73.577 C 73.588 73.577,78.827 73.380,78.820 73.139 C 78.813 72.898,72.952 57.066,65.796 37.956 L 52.784 3.212 40.462 3.054 L 28.140 2.897 26.286 7.726 M88.175 38.219 L 88.175 73.577 109.997 73.577 C 132.633 73.577,139.642 73.021,143.737 70.904 C 157.507 63.783,156.991 42.143,142.926 36.897 L 140.071 35.832 142.494 34.739 C 154.471 29.338,153.019 10.787,140.146 4.724 L 136.934 3.212 112.555 3.036 L 88.175 2.860 88.175 38.219 M251.689 25.839 C 251.702 55.849,252.590 60.086,260.375 67.293 C 266.599 73.056,272.419 74.696,286.715 74.716 C 302.499 74.737,311.192 70.604,316.233 60.681 C 319.538 54.176,319.597 53.629,319.848 27.299 L 320.080 2.920 308.992 2.920 L 297.903 2.920 297.686 26.131 C 297.526 43.205,297.272 49.806,296.724 51.095 C 293.772 58.048,283.266 60.211,277.758 54.999 C 274.097 51.535,274.177 52.143,273.984 26.423 L 273.808 2.920 262.743 2.920 L 251.679 2.920 251.689 25.839 M331.679 11.679 L 331.679 20.438 342.774 20.438 L 353.869 20.438 353.869 47.007 L 353.869 73.577 364.964 73.577 L 376.058 73.577 376.058 47.007 L 376.058 20.438 387.153 20.438 L 398.248 20.438 398.248 11.679 L 398.248 2.920 364.964 2.920 L 331.679 2.920 331.679 11.679 M213.281 4.633 C 228.361 8.490,235.723 18.502,236.346 35.999 C 237.226 60.721,225.421 73.316,201.460 73.217 C 178.687 73.123,166.696 61.050,166.727 38.248 C 166.763 12.303,186.774 -2.146,213.281 4.633 M64.039 38.248 C 70.888 56.555,76.493 71.730,76.494 71.971 C 76.495 72.212,72.093 72.409,66.710 72.409 L 56.924 72.409 55.169 66.715 L 53.413 61.022 40.000 61.022 L 26.587 61.022 24.861 66.715 L 23.135 72.409 13.543 72.409 C 4.690 72.409,3.973 72.330,4.232 71.387 C 4.451 70.591,27.174 10.124,28.924 5.681 C 29.297 4.734,30.268 4.660,40.459 4.805 L 51.587 4.964 64.039 38.248 M139.771 6.371 C 151.078 11.983,152.142 26.956,141.682 33.285 C 137.375 35.891,137.400 36.082,142.382 38.581 C 151.708 43.260,154.860 52.186,150.444 61.420 C 146.006 70.702,139.596 72.378,108.467 72.397 L 89.927 72.409 89.927 38.515 L 89.927 4.622 113.431 4.793 C 136.934 4.964,136.934 4.964,139.771 6.371 M272.129 24.672 C 272.142 47.045,272.491 51.006,274.752 54.422 C 279.713 61.919,293.452 61.079,297.462 53.033 L 298.978 49.990 298.978 27.331 L 298.978 4.672 308.613 4.672 L 318.248 4.672 318.248 26.768 C 318.248 55.095,317.473 58.777,309.973 66.083 C 299.889 75.904,272.570 76.086,261.853 66.402 C 254.343 59.616,253.450 55.436,253.439 27.007 L 253.431 4.672 262.774 4.672 L 272.117 4.672 272.129 24.672 M396.496 11.958 L 396.496 19.244 385.547 19.403 L 374.599 19.562 374.447 45.985 L 374.295 72.409 364.666 72.409 L 355.036 72.409 355.036 45.839 L 355.036 19.270 343.942 19.270 L 332.847 19.270 332.847 11.971 L 332.847 4.672 364.672 4.672 L 396.496 4.672 396.496 11.958 M109.902 16.496 C 109.369 17.139,109.206 19.421,109.325 24.608 L 109.489 31.825 117.080 31.818 C 128.746 31.806,133.237 27.384,129.304 19.779 C 127.641 16.562,112.039 13.922,109.902 16.496 M197.876 17.346 C 194.128 17.923,190.180 21.131,188.035 25.344 L 185.985 29.369 185.985 37.896 C 185.985 53.482,190.521 59.574,202.112 59.556 C 210.973 59.543,215.786 54.611,217.284 44.012 C 219.842 25.910,212.025 15.170,197.876 17.346 M123.747 18.088 C 127.043 19.034,128.467 20.806,128.467 23.964 C 128.467 29.039,125.972 30.365,116.423 30.365 L 110.949 30.365 110.949 23.942 L 110.949 17.518 116.354 17.518 C 119.327 17.518,122.654 17.775,123.747 18.088 M208.749 20.693 C 218.863 26.620,218.670 51.052,208.467 56.494 C 201.674 60.117,192.911 57.354,189.489 50.511 C 187.146 45.825,186.853 31.464,189.006 26.861 C 192.532 19.324,201.586 16.495,208.749 20.693 M38.939 20.876 C 38.091 22.336,30.963 46.849,31.250 47.315 C 31.718 48.071,48.285 48.066,48.753 47.309 C 49.090 46.764,42.470 23.617,41.360 21.460 C 40.826 20.422,39.402 20.078,38.939 20.876 M43.719 34.715 C 45.667 41.121,47.174 46.451,47.067 46.558 C 46.960 46.665,43.718 46.678,39.862 46.588 L 32.851 46.423 36.408 34.630 C 38.365 28.143,40.012 22.888,40.070 22.951 C 40.128 23.014,41.770 28.308,43.719 34.715 M109.452 43.389 C 109.292 43.807,109.234 47.552,109.325 51.710 L 109.489 59.270 118.587 59.270 C 127.634 59.270,127.697 59.261,129.809 57.649 C 135.573 53.250,133.405 44.826,126.107 43.261 C 121.770 42.331,109.823 42.422,109.452 43.389 M126.240 44.984 C 130.559 46.183,132.492 50.476,130.472 54.382 C 129.121 56.995,126.416 57.841,118.173 58.230 L 110.949 58.572 110.949 51.476 L 110.949 44.380 117.518 44.383 C 121.131 44.385,125.056 44.655,126.240 44.984 " stroke="none" fill="#393939" fill-rule="evenodd"></path></g></svg>