<?xml version="1.0" standalone="no"?>
<!DOCTYPE svg PUBLIC "-//W3C//DTD SVG 20010904//EN"
 "http://www.w3.org/TR/2001/REC-SVG-20010904/DTD/svg10.dtd">
<svg version="1.0" xmlns="http://www.w3.org/2000/svg"
 width="1108.000000pt" height="133.000000pt" viewBox="0 0 1108.000000 133.000000"
 preserveAspectRatio="xMidYMid meet">

<g transform="translate(0.000000,133.000000) scale(0.100000,-0.100000)"
fill="#393939" stroke="none">
<path d="M1410 1275 c-130 -26 -218 -73 -301 -161 -99 -106 -139 -216 -146
-405 -9 -220 38 -372 156 -500 106 -116 213 -158 426 -166 122 -5 152 -3 224
16 102 25 160 58 228 127 69 72 154 246 130 270 -8 8 -290 94 -309 94 -11 0
-18 -7 -18 -17 0 -26 -48 -124 -73 -151 -40 -43 -77 -56 -157 -56 -86 0 -120
14 -168 68 -47 54 -57 102 -57 271 0 135 2 155 23 200 45 97 103 135 207 135
100 0 165 -40 200 -123 8 -20 21 -37 28 -37 23 1 307 67 314 73 12 13 -48 135
-95 193 -103 128 -248 185 -462 183 -47 0 -114 -7 -150 -14z m313 -29 c103
-20 182 -59 243 -121 50 -52 125 -178 112 -190 -3 -4 -55 -17 -115 -31 -59
-13 -117 -26 -129 -29 -15 -3 -24 2 -32 20 -20 44 -83 104 -127 121 -31 11
-65 15 -119 12 -64 -3 -81 -8 -118 -33 -94 -66 -128 -155 -128 -330 0 -221 54
-327 185 -364 51 -14 81 -14 146 0 68 15 137 81 167 160 23 62 13 61 157 18
55 -17 108 -33 118 -35 24 -7 22 -15 -21 -108 -88 -187 -229 -265 -479 -266
-202 0 -326 41 -427 142 -113 113 -165 258 -166 455 0 301 135 506 375 567
116 29 246 33 358 12z"/>
<path d="M2780 1276 c-243 -52 -393 -198 -446 -435 -13 -56 -15 -106 -12 -215
5 -122 9 -151 33 -216 65 -177 180 -287 355 -342 66 -20 95 -23 240 -23 150 1
172 3 241 26 183 62 304 193 356 389 13 49 17 102 17 215 0 135 -3 158 -27
232 -62 186 -189 305 -382 358 -83 22 -292 28 -375 11z m370 -40 c251 -70 391
-274 390 -569 -2 -316 -152 -526 -415 -582 -153 -32 -370 -13 -492 45 -77 35
-175 130 -216 207 -64 119 -88 358 -52 510 53 225 214 367 460 407 56 9 270
-3 325 -18z"/>
<path d="M2840 1017 c-54 -18 -124 -93 -150 -162 -19 -50 -23 -80 -24 -185 -1
-195 37 -285 145 -345 47 -26 64 -30 134 -30 71 0 86 4 135 31 100 56 140 155
140 349 0 165 -43 267 -137 322 -38 22 -60 27 -127 29 -45 2 -97 -2 -116 -9z
m236 -52 c37 -24 56 -45 79 -90 29 -57 30 -62 30 -204 0 -178 -14 -229 -79
-289 -110 -101 -299 -72 -369 57 -69 126 -57 387 22 482 49 59 102 81 192 77
64 -3 83 -8 125 -33z"/>
<path d="M8120 1275 c-130 -26 -218 -73 -301 -161 -99 -106 -139 -216 -146
-405 -9 -220 38 -372 156 -500 106 -116 213 -158 426 -166 122 -5 152 -3 224
16 102 25 160 58 228 127 69 72 154 246 130 270 -8 8 -290 94 -309 94 -11 0
-18 -7 -18 -17 0 -26 -48 -124 -73 -151 -40 -43 -77 -56 -157 -56 -86 0 -120
14 -168 68 -47 54 -57 102 -57 271 0 135 2 155 23 200 45 97 103 135 207 135
100 0 165 -40 200 -123 8 -20 21 -37 28 -37 23 1 307 67 314 73 12 13 -48 135
-95 193 -103 128 -248 185 -462 183 -47 0 -114 -7 -150 -14z m313 -29 c103
-20 182 -59 243 -121 50 -52 125 -178 112 -190 -3 -4 -55 -17 -115 -31 -59
-13 -117 -26 -129 -29 -15 -3 -24 2 -32 20 -20 44 -83 104 -127 121 -31 11
-65 15 -119 12 -64 -3 -81 -8 -118 -33 -94 -66 -128 -155 -128 -330 0 -221 54
-327 185 -364 51 -14 81 -14 146 0 68 15 137 81 167 160 23 62 13 61 157 18
55 -17 108 -33 118 -35 24 -7 22 -15 -21 -108 -88 -187 -229 -265 -479 -266
-202 0 -326 41 -427 142 -113 113 -165 258 -166 455 0 301 135 506 375 567
116 29 246 33 358 12z"/>
<path d="M3807 1263 c-4 -3 -7 -276 -7 -605 l0 -598 180 0 180 0 2 323 3 324
220 -324 219 -323 178 0 178 0 0 605 0 605 -175 0 -175 0 -2 -332 -3 -331
-225 331 -225 331 -171 1 c-94 0 -174 -3 -177 -7z m553 -349 c122 -179 229
-328 237 -331 39 -15 43 18 43 344 l0 313 145 0 145 0 0 -575 0 -576 -157 3
-156 3 -218 320 c-180 264 -223 321 -244 323 l-25 3 0 -325 0 -326 -150 0
-150 0 0 575 0 575 154 0 155 0 221 -326z"/>
<path d="M5170 1120 l0 -150 190 0 190 0 0 -455 0 -455 185 0 185 0 0 455 0
455 190 0 190 0 0 150 0 150 -565 0 -565 0 0 -150z m1100 0 l0 -120 -178 0
c-125 0 -182 -4 -190 -12 -9 -9 -12 -124 -12 -455 l0 -443 -155 0 -155 0 0
443 c0 331 -3 446 -12 455 -8 8 -65 12 -190 12 l-178 0 0 120 0 120 535 0 535
0 0 -120z"/>
<path d="M6511 697 c-118 -314 -221 -587 -228 -605 l-13 -32 193 0 194 0 29
100 29 100 211 0 211 0 28 -100 28 -100 199 0 198 0 -24 63 c-13 34 -114 306
-226 605 l-203 542 -206 0 -206 0 -214 -573z m813 -12 c115 -306 210 -565 213
-576 5 -19 1 -19 -158 -17 l-163 3 -28 89 c-15 49 -33 93 -40 98 -7 4 -108 8
-225 8 -166 0 -215 -3 -225 -14 -8 -7 -25 -52 -38 -100 l-24 -86 -158 0 c-87
0 -158 3 -158 8 0 4 95 262 212 574 l213 568 186 0 186 0 207 -555z"/>
<path d="M6903 958 c-5 -7 -38 -107 -73 -222 -46 -154 -60 -213 -53 -225 8
-13 34 -17 134 -19 146 -3 169 1 169 29 0 27 -119 421 -132 437 -6 6 -16 12
-23 12 -7 0 -17 -6 -22 -12z m87 -222 c33 -108 60 -201 60 -206 0 -6 -49 -10
-125 -10 -69 0 -125 3 -125 7 0 14 124 413 127 409 2 -2 31 -92 63 -200z"/>
<path d="M8990 1120 l0 -150 190 0 190 0 0 -455 0 -455 185 0 185 0 0 455 0
455 190 0 190 0 0 150 0 150 -565 0 -565 0 0 -150z m1100 0 l0 -120 -178 0
c-125 0 -182 -4 -190 -12 -9 -9 -12 -124 -12 -455 l0 -443 -155 0 -155 0 0
443 c0 331 -3 446 -12 455 -8 8 -65 12 -190 12 l-178 0 0 120 0 120 535 0 535
0 0 -120z"/>
</g>
</svg>
