<svg version="1.1" xmlns="http://www.w3.org/2000/svg" xmlns:xlink="http://www.w3.org/1999/xlink" x="0px" y="0px" width="40" height="40" viewBox="0 0 48 48" enable-background="new 0 0 48 48" xml:space="preserve">
<g>
	<path fill="#9B0A0A" d="M29,7c0,0-2.143-1-5-1s-5,1-5,1V4c0,0,1.429-1,5-1s5,1,5,1V7z"/>
	<path fill="#9B0A0A" d="M29,28c0,0-2.143,1-5,1s-5-1-5-1v4c0,0,1.429,1,5,1s5-1,5-1V28z"/>
</g>
<circle fill="#FF9800" cx="24" cy="35" r="2"/>
<path fill="#fc8b4a" d="M43,18c0,6.461-8.507,12-19,12C13.508,30,5,24.461,5,18S13.508,6,24,6C34.493,6,43,11.539,43,18z"/>
<g>
	<path fill="#f96f1f" d="M7.634,12h32.733c-1.05-1.125-2.375-2.139-3.927-3H11.56C10.008,9.861,8.683,10.875,7.634,12z"/>
	<path fill="#f96f1f" d="M5,18h38c0-1.031-0.238-2.034-0.646-3H5.646C5.238,15.966,5,16.969,5,18z"/>
	<path fill="#f96f1f" d="M11.56,27c3.335,1.852,7.678,3,12.44,3c4.764,0,9.105-1.148,12.44-3H11.56z"/>
	<path fill="#f96f1f" d="M5.646,21c0.447,1.061,1.118,2.066,1.988,3h32.733c0.869-0.934,1.541-1.939,1.987-3H5.646z"/>
</g>
<path fill="#ff782a" d="M20.806,6.188C19.058,8.111,16,12.284,16,18s3.058,9.889,4.806,11.813C21.847,29.927,22.909,30,24,30&#10;&#9;s2.153-0.073,3.193-0.188C28.942,27.889,32,23.716,32,18s-3.058-9.889-4.807-11.813C26.153,6.073,25.091,6,24,6&#10;&#9;S21.847,6.073,20.806,6.188z"/>
<g>
	<path fill="#fb5c00" d="M30.836,24c0.364-0.923,0.672-1.922,0.878-3H16.286c0.206,1.078,0.514,2.077,0.878,3H30.836z"/>
	<path fill="#fb5c00" d="M29.317,27H18.683c0.744,1.189,1.513,2.141,2.124,2.813C21.847,29.927,22.909,30,24,30&#10;&#9;&#9;s2.153-0.073,3.193-0.188C27.805,29.141,28.574,28.189,29.317,27z"/>
	<path fill="#fb5c00" d="M16.286,15C16.105,15.945,16,16.945,16,18h16c0-1.055-0.105-2.055-0.286-3H16.286z"/>
	<path fill="#fb5c00" d="M18.683,9c-0.545,0.873-1.074,1.877-1.519,3h13.672c-0.444-1.123-0.973-2.127-1.519-3H18.683z"/>
</g>
<g>
	<path fill="#FFC107" d="M31,18c0,6.396-4.153,10.82-5.329,11.945c1.038-0.059,2.045-0.179,3.028-0.341&#10;&#9;&#9;C30.559,27.313,33,23.297,33,18s-2.441-9.313-4.301-11.604c-0.982-0.162-1.99-0.282-3.026-0.341C26.85,7.175,31,11.578,31,18z"/>
	<path fill="#FFC107" d="M22.329,6.055c-1.038,0.059-2.045,0.179-3.028,0.341C17.441,8.688,15,12.703,15,18&#10;&#9;&#9;s2.441,9.313,4.301,11.604c0.982,0.162,1.989,0.282,3.026,0.341C21.15,28.825,17,24.422,17,18C17,11.604,21.153,7.18,22.329,6.055z&#10;&#9;&#9;"/>
	<path fill="#FFC107" d="M22,45c0-4,2-8,2-8s2,4,2,8H22z"/>
</g>
</svg>