<?xml version="1.0" standalone="no"?>
<!DOCTYPE svg PUBLIC "-//W3C//DTD SVG 20010904//EN"
 "http://www.w3.org/TR/2001/REC-SVG-20010904/DTD/svg10.dtd">
<svg version="1.0" xmlns="http://www.w3.org/2000/svg"
 width="331.000000pt" height="45.000000pt" viewBox="0 0 331.000000 45.000000"
 preserveAspectRatio="xMidYMid meet">

<g transform="translate(0.000000,45.000000) scale(0.100000,-0.100000)"
fill="#000000" stroke="none">
<path d="M3135 439 c-62 -18 -130 -63 -133 -88 -9 -62 20 -98 118 -142 80 -37
100 -55 100 -89 0 -40 -32 -63 -93 -67 -65 -5 -112 20 -122 66 -5 24 -12 31
-31 31 -20 0 -24 -5 -24 -33 0 -70 59 -111 160 -111 105 0 165 46 165 125 0
51 -23 73 -127 125 -90 45 -108 67 -88 103 15 29 42 41 89 41 45 0 101 -39
101 -71 0 -14 7 -19 25 -19 21 0 25 5 25 28 0 67 -91 123 -165 101z"/>
<path d="M71 323 c-13 -65 -26 -124 -28 -130 -8 -21 11 -15 50 18 25 21 35 35
29 43 -6 6 -3 36 5 74 l14 62 65 0 c44 0 73 5 91 17 23 16 24 17 7 24 -11 4
-62 8 -114 8 l-95 1 -24 -117z"/>
<path d="M462 232 c-23 -114 -42 -211 -42 -215 0 -4 62 -6 138 -5 134 3 137 4
140 26 3 22 2 22 -108 22 -101 0 -111 2 -106 18 3 9 19 84 36 167 17 82 33
160 36 172 5 20 2 23 -22 23 l-29 0 -43 -208z"/>
<path d="M946 396 c-27 -47 -32 -72 -16 -96 10 -17 9 -18 43 40 15 25 27 41
27 35 0 -10 16 -119 25 -167 3 -20 0 -28 -10 -28 -20 0 -19 -16 3 -38 9 -10
30 -44 47 -75 31 -61 50 -74 41 -30 -3 16 -17 102 -31 193 -34 225 -29 210
-69 210 -30 0 -37 -6 -60 -44z"/>
<path d="M1265 428 c-6 -20 -85 -397 -85 -408 0 -15 60 -12 62 3 0 6 2 23 3
37 1 14 16 94 35 178 l33 152 68 0 c56 0 70 3 78 19 6 10 7 21 4 25 -13 12
-193 7 -198 -6z"/>
<path d="M1717 418 c-4 -13 -22 -99 -41 -193 -20 -93 -38 -180 -41 -192 -5
-20 -1 -23 24 -23 29 0 29 1 47 95 l18 95 57 0 c51 0 60 -3 81 -29 14 -16 37
-58 53 -95 25 -60 31 -66 57 -66 26 0 29 3 22 23 -12 40 -62 133 -78 146 -23
19 -20 31 8 31 32 0 89 40 100 71 7 20 1 36 -31 89 l-40 65 -115 3 c-113 3
-116 2 -121 -20z m251 -40 c21 -21 14 -73 -14 -99 -23 -21 -36 -24 -121 -28
l-96 -3 7 33 c4 19 9 51 13 72 l6 37 96 0 c62 0 101 -4 109 -12z"/>
<path d="M2138 358 c-15 -78 -15 -83 4 -115 l20 -33 123 0 c103 0 124 3 129
16 3 9 6 18 6 20 0 2 -53 4 -118 4 -65 0 -121 2 -124 5 -5 5 -1 34 17 113 5
21 9 22 134 22 l129 0 4 25 5 25 -156 0 -157 0 -16 -82z"/>
<path d="M2532 232 c-23 -114 -42 -210 -42 -214 0 -5 11 -8 25 -8 28 0 24 -14
69 204 l32 160 30 -73 c31 -76 40 -86 57 -60 8 13 1 39 -28 108 -36 87 -39 91
-69 91 l-31 0 -43 -208z"/>
<path d="M2856 424 c-3 -9 -6 -25 -6 -35 0 -20 1 -20 30 1 17 12 30 28 30 36
0 19 -46 18 -54 -2z"/>
<path d="M1511 376 c-8 -10 -8 -21 -1 -40 15 -40 12 -121 -5 -164 -29 -67 -86
-112 -144 -112 -20 0 -34 -7 -41 -19 -15 -29 -13 -31 23 -31 88 0 167 53 208
138 29 59 31 161 6 210 -19 35 -29 39 -46 18z"/>
<path d="M338 359 c-10 -5 -18 -18 -18 -28 0 -28 -39 -71 -64 -71 -12 0 -33
-11 -45 -24 l-22 -23 47 -6 c78 -8 98 -64 45 -118 -28 -28 -33 -29 -120 -29
l-90 0 6 31 6 31 -27 -17 c-31 -20 -46 -45 -46 -74 0 -20 5 -21 120 -21 101 0
127 3 160 20 47 24 70 64 70 119 0 31 -6 44 -30 64 -28 24 -29 26 -10 32 25 8
50 55 50 95 0 32 -5 35 -32 19z"/>
<path d="M2843 288 c-14 -15 -28 -55 -40 -118 l-19 -95 -18 53 c-19 55 -26 61
-46 37 -10 -12 -7 -28 16 -85 26 -68 29 -71 58 -68 l30 3 31 148 c32 151 30
171 -12 125z"/>
<path d="M848 219 c-14 -24 -46 -80 -72 -124 -42 -74 -44 -80 -25 -83 33 -6
44 3 75 62 28 55 30 56 72 56 23 0 42 3 42 6 0 16 -22 44 -35 44 -8 0 -12 6
-9 14 3 8 -1 27 -9 42 l-14 27 -25 -44z"/>
<path d="M2086 110 c-24 -106 -27 -100 60 -100 l76 0 -14 22 c-9 14 -28 24
-46 26 -28 3 -30 5 -26 40 3 26 -1 44 -14 61 l-19 24 -17 -73z"/>
<path d="M2283 38 c12 -19 24 -23 63 -23 43 0 49 3 52 23 3 21 0 22 -64 22
l-66 0 15 -22z"/>
</g>
</svg>
