<?xml version="1.0" standalone="no"?>
<!DOCTYPE svg PUBLIC "-//W3C//DTD SVG 20010904//EN"
 "http://www.w3.org/TR/2001/REC-SVG-20010904/DTD/svg10.dtd">
<svg version="1.0" xmlns="http://www.w3.org/2000/svg"
 width="300pt" height="60pt" viewBox="0 0 1108.000000 133.000000"
 preserveAspectRatio="xMidYMid meet">

<g transform="translate(0.000000,133.000000) scale(0.100000,-0.100000)"
fill="#393939" stroke="none">
<path d="M1730 1276 c-243 -52 -393 -198 -446 -435 -13 -56 -15 -106 -12 -215
5 -122 9 -151 33 -216 65 -177 180 -287 355 -342 66 -20 95 -23 240 -23 150 1
172 3 241 26 183 62 304 193 356 389 13 49 17 102 17 215 0 135 -3 158 -27
232 -62 186 -189 305 -382 358 -83 22 -292 28 -375 11z m370 -40 c251 -70 391
-274 390 -569 -2 -316 -152 -526 -415 -582 -153 -32 -370 -13 -492 45 -77 35
-175 130 -216 207 -64 119 -88 358 -52 510 53 225 214 367 460 407 56 9 270
-3 325 -18z"/>
<path d="M1790 1017 c-54 -18 -124 -93 -150 -162 -19 -50 -23 -80 -24 -185 -1
-195 37 -285 145 -345 47 -26 64 -30 134 -30 71 0 86 4 135 31 100 56 140 155
140 349 0 165 -43 267 -137 322 -38 22 -60 27 -127 29 -45 2 -97 -2 -116 -9z
m236 -52 c37 -24 56 -45 79 -90 29 -57 30 -62 30 -204 0 -178 -14 -229 -79
-289 -110 -101 -299 -72 -369 57 -69 126 -57 387 22 482 49 59 102 81 192 77
64 -3 83 -8 125 -33z"/>
<path d="M6940 1276 c-243 -52 -393 -198 -446 -435 -13 -56 -15 -106 -12 -215
5 -122 9 -151 33 -216 65 -177 180 -287 355 -342 66 -20 95 -23 240 -23 150 1
172 3 241 26 183 62 304 193 356 389 13 49 17 102 17 215 0 135 -3 158 -27
232 -62 186 -189 305 -382 358 -83 22 -292 28 -375 11z m370 -40 c251 -70 391
-274 390 -569 -2 -316 -152 -526 -415 -582 -153 -32 -370 -13 -492 45 -77 35
-175 130 -216 207 -64 119 -88 358 -52 510 53 225 214 367 460 407 56 9 270
-3 325 -18z"/>
<path d="M7000 1017 c-54 -18 -124 -93 -150 -162 -19 -50 -23 -80 -24 -185 -1
-195 37 -285 145 -345 47 -26 64 -30 134 -30 71 0 86 4 135 31 100 56 140 155
140 349 0 165 -43 267 -137 322 -38 22 -60 27 -127 29 -45 2 -97 -2 -116 -9z
m236 -52 c37 -24 56 -45 79 -90 29 -57 30 -62 30 -204 0 -178 -14 -229 -79
-289 -110 -101 -299 -72 -369 57 -69 126 -57 387 22 482 49 59 102 81 192 77
64 -3 83 -8 125 -33z"/>
<path d="M10250 1276 c-243 -52 -393 -198 -446 -435 -13 -56 -15 -106 -12
-215 5 -122 9 -151 33 -216 65 -177 180 -287 355 -342 66 -20 95 -23 240 -23
150 1 172 3 241 26 183 62 304 193 356 389 13 49 17 102 17 215 0 135 -3 158
-27 232 -62 186 -189 305 -382 358 -83 22 -292 28 -375 11z m370 -40 c251 -70
391 -274 390 -569 -2 -316 -152 -526 -415 -582 -153 -32 -370 -13 -492 45 -77
35 -175 130 -216 207 -64 119 -88 358 -52 510 53 225 214 367 460 407 56 9
270 -3 325 -18z"/>
<path d="M10310 1017 c-54 -18 -124 -93 -150 -162 -19 -50 -23 -80 -24 -185
-1 -195 37 -285 145 -345 47 -26 64 -30 134 -30 71 0 86 4 135 31 100 56 140
155 140 349 0 165 -43 267 -137 322 -38 22 -60 27 -127 29 -45 2 -97 -2 -116
-9z m236 -52 c37 -24 56 -45 79 -90 29 -57 30 -62 30 -204 0 -178 -14 -229
-79 -289 -110 -101 -299 -72 -369 57 -69 126 -57 387 22 482 49 59 102 81 192
77 64 -3 83 -8 125 -33z"/>
<path d="M40 665 l0 -605 190 0 190 0 0 225 0 225 156 0 c228 0 316 28 403
126 61 70 84 139 84 259 0 81 -4 111 -22 159 -27 67 -76 127 -135 161 -83 48
-143 55 -518 55 l-348 0 0 -605z m735 564 c192 -35 292 -194 256 -405 -23
-129 -86 -211 -197 -255 -52 -20 -81 -23 -239 -27 -102 -2 -185 -8 -192 -14
-10 -8 -13 -65 -13 -224 l0 -214 -160 0 -160 0 0 575 0 575 323 0 c191 0 348
-4 382 -11z"/>
<path d="M398 1044 c-5 -4 -8 -74 -8 -154 0 -121 3 -150 15 -160 24 -20 217 0
253 27 53 39 74 83 70 141 -5 60 -28 97 -79 127 -27 16 -57 21 -139 23 -58 2
-108 0 -112 -4z m222 -37 c52 -18 83 -70 77 -130 -7 -83 -50 -111 -189 -122
l-88 -7 0 136 0 136 83 -1 c45 0 98 -5 117 -12z"/>
<path d="M2770 665 l0 -605 185 0 185 0 0 245 0 245 30 0 c46 0 95 -24 123
-61 13 -19 72 -122 130 -229 l105 -195 211 -3 c116 -1 211 1 211 4 0 4 -43 89
-95 190 -108 207 -163 281 -230 314 l-47 23 51 17 c27 9 69 30 92 46 160 110
185 368 51 507 -92 95 -157 106 -634 107 l-368 0 0 -605z m783 565 c171 -25
259 -111 274 -266 7 -76 -10 -150 -47 -206 -36 -55 -78 -85 -160 -119 -82 -33
-86 -53 -15 -91 69 -37 114 -99 216 -293 l87 -165 -181 2 -182 3 -107 199
c-59 110 -122 214 -138 231 -46 48 -149 72 -178 43 -9 -9 -12 -77 -12 -245 l0
-233 -155 0 -155 0 0 575 0 575 343 0 c188 0 373 -5 410 -10z"/>
<path d="M3123 1039 c-20 -20 -18 -263 2 -279 25 -21 250 -9 300 15 107 53
114 197 13 252 -43 23 -295 32 -315 12z m280 -30 c46 -13 77 -57 77 -112 0
-81 -77 -117 -250 -117 l-90 0 0 120 0 120 113 0 c61 0 129 -5 150 -11z"/>
<path d="M4020 1120 l0 -150 190 0 190 0 0 -455 0 -455 185 0 185 0 0 455 0
455 190 0 190 0 0 150 0 150 -565 0 -565 0 0 -150z m1100 0 l0 -120 -178 0
c-125 0 -182 -4 -190 -12 -9 -9 -12 -124 -12 -455 l0 -443 -155 0 -155 0 0
443 c0 331 -3 446 -12 455 -8 8 -65 12 -190 12 l-178 0 0 120 0 120 535 0 535
0 0 -120z"/>
<path d="M5367 1263 c-4 -3 -7 -276 -7 -605 l0 -598 190 0 190 0 0 245 0 245
235 0 235 0 0 125 0 125 -235 0 -235 0 0 105 0 105 275 0 275 0 0 130 0 130
-458 0 c-252 0 -462 -3 -465 -7z m893 -123 l0 -100 -263 0 c-191 0 -266 -3
-275 -12 -8 -8 -12 -50 -12 -123 0 -73 4 -115 12 -123 9 -9 75 -12 235 -12
l223 0 0 -95 0 -95 -223 0 c-160 0 -226 -3 -235 -12 -9 -9 -12 -77 -12 -245
l0 -233 -160 0 -160 0 0 575 0 575 435 0 435 0 0 -100z"/>
<path d="M7970 665 l0 -605 480 0 480 0 0 150 0 150 -290 0 -290 0 -2 453 -3
452 -187 3 -188 2 0 -605z m352 123 l3 -453 288 -3 287 -2 0 -120 0 -120 -450
0 -450 0 0 575 0 575 160 0 160 0 2 -452z"/>
<path d="M9150 665 l0 -605 185 0 185 0 0 605 0 605 -185 0 -185 0 0 -605z
m340 0 l0 -575 -155 0 -155 0 0 575 0 575 155 0 155 0 0 -575z"/>
</g>
</svg>
