<?xml version="1.0" standalone="no"?>
<!DOCTYPE svg PUBLIC "-//W3C//DTD SVG 20010904//EN"
 "http://www.w3.org/TR/2001/REC-SVG-20010904/DTD/svg10.dtd">
<svg version="1.0" xmlns="http://www.w3.org/2000/svg"
 width="1108.000000pt" height="133.000000pt" viewBox="0 0 1108.000000 133.000000"
 preserveAspectRatio="xMidYMid meet">

<g transform="translate(0.000000,133.000000) scale(0.100000,-0.100000)"
fill="#393939" stroke="none">
<path d="M1099 1280 c-206 -33 -332 -145 -354 -316 -9 -62 14 -151 53 -207 57
-85 189 -152 398 -203 131 -32 198 -64 219 -104 19 -37 19 -54 -1 -96 -45 -95
-228 -98 -307 -5 -24 29 -47 86 -47 119 0 8 -19 12 -62 11 -94 0 -288 -16
-295 -22 -11 -12 17 -122 47 -184 20 -40 51 -81 90 -117 87 -80 173 -107 370
-113 109 -4 163 -1 219 11 157 33 268 112 327 231 26 55 29 69 29 165 0 119
-17 168 -81 234 -76 78 -165 117 -393 173 -81 19 -159 42 -174 50 -63 32 -57
107 11 139 45 21 143 14 181 -14 24 -17 53 -64 66 -106 5 -17 14 -18 173 -11
92 4 171 9 176 12 13 8 -2 82 -30 143 -66 146 -193 209 -429 215 -71 2 -155 0
-186 -5z m382 -49 c116 -37 194 -112 225 -219 9 -29 14 -55 12 -57 -1 -1 -69
-6 -149 -10 l-147 -7 -7 23 c-29 95 -136 146 -254 123 -68 -14 -116 -95 -89
-150 22 -46 58 -62 239 -108 203 -51 288 -87 354 -147 76 -70 90 -106 90 -229
0 -96 -2 -110 -28 -159 -36 -67 -103 -132 -170 -165 -148 -73 -454 -75 -616
-6 -57 25 -128 95 -162 161 -27 53 -51 141 -41 150 4 4 72 9 151 11 l145 3 9
-39 c14 -56 89 -131 147 -146 65 -18 153 -7 199 23 98 65 88 193 -20 248 -22
11 -101 35 -176 55 -176 45 -283 95 -344 160 -56 60 -74 108 -73 194 2 156
115 269 307 306 105 20 312 12 398 -15z"/>
<path d="M7080 1275 c-130 -26 -218 -73 -301 -161 -99 -106 -139 -216 -146
-405 -9 -220 38 -372 156 -500 106 -116 213 -158 426 -166 122 -5 152 -3 224
16 102 25 160 58 228 127 69 72 154 246 130 270 -8 8 -290 94 -309 94 -11 0
-18 -7 -18 -17 0 -26 -48 -124 -73 -151 -40 -43 -77 -56 -157 -56 -86 0 -120
14 -168 68 -47 54 -57 102 -57 271 0 135 2 155 23 200 45 97 103 135 207 135
100 0 165 -40 200 -123 8 -20 21 -37 28 -37 23 1 307 67 314 73 12 13 -48 135
-95 193 -103 128 -248 185 -462 183 -47 0 -114 -7 -150 -14z m313 -29 c103
-20 182 -59 243 -121 50 -52 125 -178 112 -190 -3 -4 -55 -17 -115 -31 -59
-13 -117 -26 -129 -29 -15 -3 -24 2 -32 20 -20 44 -83 104 -127 121 -31 11
-65 15 -119 12 -64 -3 -81 -8 -118 -33 -94 -66 -128 -155 -128 -330 0 -221 54
-327 185 -364 51 -14 81 -14 146 0 68 15 137 81 167 160 23 62 13 61 157 18
55 -17 108 -33 118 -35 24 -7 22 -15 -21 -108 -88 -187 -229 -265 -479 -266
-202 0 -326 41 -427 142 -113 113 -165 258 -166 455 0 301 135 506 375 567
116 29 246 33 358 12z"/>
<path d="M9629 1280 c-206 -33 -332 -145 -354 -316 -9 -62 14 -151 53 -207 57
-85 189 -152 398 -203 131 -32 198 -64 219 -104 19 -37 19 -54 -1 -96 -45 -95
-228 -98 -307 -5 -24 29 -47 86 -47 119 0 8 -19 12 -62 11 -94 0 -288 -16
-295 -22 -11 -12 17 -122 47 -184 20 -40 51 -81 90 -117 87 -80 173 -107 370
-113 109 -4 163 -1 219 11 157 33 268 112 327 231 26 55 29 69 29 165 0 119
-17 168 -81 234 -76 78 -165 117 -393 173 -81 19 -159 42 -174 50 -63 32 -57
107 11 139 45 21 143 14 181 -14 24 -17 53 -64 66 -106 5 -17 14 -18 173 -11
92 4 171 9 176 12 13 8 -2 82 -30 143 -66 146 -193 209 -429 215 -71 2 -155 0
-186 -5z m382 -49 c116 -37 194 -112 225 -219 9 -29 14 -55 12 -57 -1 -1 -69
-6 -149 -10 l-147 -7 -7 23 c-29 95 -136 146 -254 123 -68 -14 -116 -95 -89
-150 22 -46 58 -62 239 -108 203 -51 288 -87 354 -147 76 -70 90 -106 90 -229
0 -96 -2 -110 -28 -159 -36 -67 -103 -132 -170 -165 -148 -73 -454 -75 -616
-6 -57 25 -128 95 -162 161 -27 53 -51 141 -41 150 4 4 72 9 151 11 l145 3 9
-39 c14 -56 89 -131 147 -146 65 -18 153 -7 199 23 98 65 88 193 -20 248 -22
11 -101 35 -176 55 -176 45 -283 95 -344 160 -56 60 -74 108 -73 194 2 156
115 269 307 306 105 20 312 12 398 -15z"/>
<path d="M2030 665 l0 -605 510 0 510 0 0 135 0 135 -320 0 -320 0 0 120 0
120 290 0 290 0 0 125 0 125 -290 0 -290 0 0 95 0 95 310 0 310 0 0 130 0 130
-500 0 -500 0 0 -605z m970 475 l0 -100 -299 0 c-243 0 -301 -3 -310 -14 -8
-9 -11 -51 -9 -122 l3 -109 288 -3 287 -2 0 -95 0 -95 -278 0 c-203 0 -281 -3
-290 -12 -17 -17 -17 -259 0 -276 9 -9 94 -12 320 -12 l308 0 0 -105 0 -105
-480 0 -480 0 0 575 0 575 470 0 470 0 0 -100z"/>
<path d="M3300 665 l0 -605 185 0 185 0 0 245 0 245 30 0 c46 0 95 -24 123
-61 13 -19 72 -122 130 -229 l105 -195 211 -3 c116 -1 211 1 211 4 0 4 -43 89
-95 190 -108 207 -163 281 -230 314 l-47 23 51 17 c27 9 69 30 92 46 160 110
185 368 51 507 -92 95 -157 106 -634 107 l-368 0 0 -605z m783 565 c171 -25
259 -111 274 -266 7 -76 -10 -150 -47 -206 -36 -55 -78 -85 -160 -119 -82 -33
-86 -53 -15 -91 69 -37 114 -99 216 -293 l87 -165 -181 2 -182 3 -107 199
c-59 110 -122 214 -138 231 -46 48 -149 72 -178 43 -9 -9 -12 -77 -12 -245 l0
-233 -155 0 -155 0 0 575 0 575 343 0 c188 0 373 -5 410 -10z"/>
<path d="M3653 1039 c-20 -20 -18 -263 2 -279 25 -21 250 -9 300 15 107 53
114 197 13 252 -43 23 -295 32 -315 12z m280 -30 c46 -13 77 -57 77 -112 0
-81 -77 -117 -250 -117 l-90 0 0 120 0 120 113 0 c61 0 129 -5 150 -11z"/>
<path d="M4500 1258 c1 -7 101 -278 224 -603 l223 -590 205 -3 205 -2 221 598
c122 329 222 601 222 605 0 4 -85 7 -188 7 l-189 0 -128 -417 c-70 -230 -131
-424 -135 -431 -3 -7 -66 181 -140 418 l-133 430 -194 0 c-148 0 -193 -3 -193
-12z m489 -416 c140 -450 144 -462 166 -462 24 0 41 46 171 473 l118 387 159
0 c123 0 158 -3 155 -12 -3 -7 -99 -266 -213 -576 l-209 -562 -184 2 -185 3
-213 565 c-118 311 -214 568 -214 573 0 4 73 7 163 7 l162 0 124 -398z"/>
<path d="M5990 665 l0 -605 185 0 185 0 0 605 0 605 -185 0 -185 0 0 -605z
m340 0 l0 -575 -155 0 -155 0 0 575 0 575 155 0 155 0 0 -575z"/>
<path d="M8030 665 l0 -605 510 0 510 0 0 135 0 135 -320 0 -320 0 0 120 0
120 290 0 290 0 0 125 0 125 -290 0 -290 0 0 95 0 95 310 0 310 0 0 130 0 130
-500 0 -500 0 0 -605z m970 475 l0 -100 -299 0 c-243 0 -301 -3 -310 -14 -8
-9 -11 -51 -9 -122 l3 -109 288 -3 287 -2 0 -95 0 -95 -278 0 c-203 0 -281 -3
-290 -12 -17 -17 -17 -259 0 -276 9 -9 94 -12 320 -12 l308 0 0 -105 0 -105
-480 0 -480 0 0 575 0 575 470 0 470 0 0 -100z"/>
</g>
</svg>
